<?xml version="1.0" encoding="UTF-8"?>
<svg id="Layer_2" data-name="Layer 2" xmlns="http://www.w3.org/2000/svg" xmlns:xlink="http://www.w3.org/1999/xlink">
<defs>
    <style>
      .pink {
        fill: #ec008c;
        strokeWidth: 0px;
      }
    </style>
  </defs>
    <g id="layer1">
        <path id="soccer_foodball" data-name="soccer foodball" class="pink" d="M18.41,0C8.24,0,0,8.24,0,18.41s8.24,18.41,18.41,18.41,18.41-8.24,18.41-18.41S28.57,0,18.41,0ZM18.41.18c2.39,0,4.68.47,6.77,1.3.09.9.06,1.91-.09,3-2.36.13-4.48.6-6.38,1.41-1.72-1.1-4.03-1.77-6.71-1.77,0-1.15-.07-2.06-.18-2.72,2.04-.79,4.26-1.23,6.59-1.23ZM25.37,1.57c4.24,1.76,7.67,5.06,9.59,9.21l-.52.71c-1.23-.86-2.79-1.41-4.37-1.77,0,0,0,0,0,0-1.66-2.47-3.26-4.2-4.8-5.17.15-1.08.19-2.07.11-2.97h0ZM11.96,4.32s0,0,.01,0c2.66,0,4.95.66,6.64,1.74.35,2.01.65,4.14.89,6.38-2.91,2.43-4.97,4.34-5.96,5.57-2.24-.7-4.36-1.23-6.36-1.59-.61-1.7-1.05-4.12-1.17-7.04,1.93-2.63,3.91-4.32,5.96-5.06ZM4.19,9.2c.52,0,1.07.08,1.63.21.12,2.92.57,5.35,1.18,7.07-1.41,1.9-2.24,3.86-2.5,5.87-1.08.24-2.3.32-3.5.08,0,0,0,0,0,0-.22-.32-.41-.68-.57-1.08-.15-.96-.24-1.94-.24-2.94,0-3.27.86-6.35,2.38-9,.52-.14,1.07-.21,1.63-.21ZM30.06,9.91c1.55.36,3.08.9,4.28,1.72,1.33,3.28,1.94,5.83,1.83,7.66-.85,2.43-2.04,4.26-3.24,5.47-1.72-.8-3.16-1.44-4.33-1.91-.13-2.32-.72-5.1-1.69-8.02,1.28-1.86,2.33-3.5,3.16-4.92ZM19.61,12.57c2.37.48,4.74,1.25,7.11,2.31.97,2.92,1.57,5.7,1.69,8,0,0,0,0,0,0-1.66,2-3.49,3.65-5.49,4.97-2.92-.49-5.59-1.33-7.65-2.42-.71-2.84-1.24-5.28-1.6-7.31.97-1.21,3.03-3.13,5.95-5.56h0ZM36.34,19.38l.26.09c-.26,4.55-2.19,8.64-5.18,11.69l-.52-.56c1.18-2.02,1.89-3.92,2.14-5.71,1.23-1.23,2.43-3.08,3.29-5.52ZM4.53,22.53c.86,2.14,2.41,4.05,4.67,5.72.12,1.93.5,3.73,1.34,5.2-.76.16-1.59.14-2.48-.06-3.25-2.25-5.74-5.53-6.99-9.37,0,0,0,0,0,0-.04-.49-.05-.96-.06-1.41,1.21.23,2.43.17,3.52-.07h0ZM15.19,25.6c2.07,1.09,4.73,1.94,7.63,2.43.46,1.52.87,3.1,1.22,4.73-1.32,1.56-3.43,2.68-6.2,3.05-2.68-.24-5.06-1.04-7.13-2.38-.84-1.44-1.22-3.25-1.34-5.19,2.11-.82,4.05-1.71,5.81-2.64ZM30.78,30.74l.51.55c-3.3,3.3-7.86,5.34-12.89,5.34-.15,0-.3,0-.45,0l-.07-.64c2.81-.37,4.96-1.51,6.32-3.11,2.83-.13,5.03-.84,6.59-2.13h0Z"/>
    </g>
</svg>