<?xml version="1.0" encoding="UTF-8"?>
<svg id="Layer_2" data-name="Layer 2" xmlns="http://www.w3.org/2000/svg" xmlns:xlink="http://www.w3.org/1999/xlink" viewBox="0 0 231.14 40.62">
  <defs>
    <style>
      .cls-1 {
        fill: url(#linear-gradient);
      }

      .cls-1, .cls-2 {
        stroke-width: 0px;
      }

      .cls-2 {
        fill: #ec008c;
      }
    </style>
    <linearGradient id="linear-gradient" x1="46.76" y1="20.31" x2="231.14" y2="20.31" gradientUnits="userSpaceOnUse">
      <stop offset="0" stop-color="#51c3f0"/>
      <stop offset=".08" stop-color="#68a9e0"/>
      <stop offset=".22" stop-color="#9080c7"/>
      <stop offset=".37" stop-color="#b05db3"/>
      <stop offset=".52" stop-color="#c943a3"/>
      <stop offset=".68" stop-color="#db3098"/>
      <stop offset=".83" stop-color="#e62491"/>
      <stop offset="1" stop-color="#ea218f"/>
    </linearGradient>
  </defs>
  <g id="Layer_1-2" data-name="Layer 1">
    <g>
      <path class="cls-1" d="M47.1,21.42v-3.48h2.76V3.9h-2.76V.42h10.8c1.28,0,2.4.22,3.35.65.95.43,1.69,1.04,2.22,1.83s.79,1.74.79,2.83v.3c0,.96-.18,1.75-.54,2.35-.36.61-.79,1.08-1.27,1.41-.49.33-.96.57-1.4.71v.54c.44.12.92.34,1.44.67.52.33.96.81,1.33,1.43.37.62.55,1.43.55,2.43v.3c0,1.16-.27,2.16-.81,2.98-.54.83-1.29,1.47-2.24,1.9-.95.44-2.05.66-3.32.66h-10.92ZM53.82,9.06h3.66c.82,0,1.5-.21,2.03-.63.53-.42.79-1,.79-1.74v-.3c0-.76-.26-1.35-.78-1.76-.52-.41-1.2-.61-2.04-.61h-3.66v5.04ZM53.82,17.82h3.72c.86,0,1.56-.21,2.09-.63.53-.42.79-1.02.79-1.8v-.3c0-.78-.26-1.38-.78-1.8-.52-.42-1.22-.63-2.1-.63h-3.72v5.16Z"/>
      <path class="cls-1" d="M74.52,21.84c-1.48,0-2.79-.31-3.92-.94s-2.01-1.52-2.64-2.67c-.63-1.15-.95-2.51-.95-4.06v-.36c0-1.56.31-2.91.93-4.06.62-1.15,1.49-2.04,2.61-2.67s2.42-.94,3.9-.94,2.73.33,3.81.97c1.08.65,1.92,1.55,2.52,2.7.6,1.15.9,2.49.9,4v1.29h-10.83c.04,1.02.42,1.85,1.14,2.49.72.64,1.6.96,2.64.96s1.84-.23,2.34-.69.88-.97,1.14-1.53l3.09,1.62c-.28.52-.68,1.08-1.21,1.69-.53.61-1.24,1.13-2.11,1.56-.88.43-2,.65-3.36.65ZM70.89,12.27h6.96c-.08-.86-.43-1.55-1.04-2.07-.61-.52-1.41-.78-2.38-.78s-1.83.26-2.43.78c-.6.52-.97,1.21-1.11,2.07Z"/>
      <path class="cls-1" d="M85.05,21.42V6.54h3.72v1.68h.54c.22-.6.58-1.04,1.09-1.32.51-.28,1.11-.42,1.79-.42h1.8v3.36h-1.86c-.96,0-1.75.25-2.37.77-.62.51-.93,1.29-.93,2.35v8.46h-3.78Z"/>
      <path class="cls-1" d="M96.93,21.42V.42h3.78v21h-3.78Z"/>
      <path class="cls-1" d="M106.8,4.8c-.68,0-1.25-.22-1.72-.66-.47-.44-.71-1.02-.71-1.74s.23-1.3.71-1.74c.47-.44,1.04-.66,1.72-.66s1.28.22,1.74.66c.46.44.69,1.02.69,1.74s-.23,1.3-.69,1.74c-.46.44-1.04.66-1.74.66ZM104.91,21.42V6.54h3.78v14.88h-3.78Z"/>
      <path class="cls-1" d="M112.89,21.42V6.54h3.72v1.95h.54c.24-.52.69-1.01,1.35-1.48.66-.47,1.66-.71,3-.71,1.16,0,2.17.27,3.04.79.87.53,1.54,1.26,2.03,2.19.48.93.72,2.02.72,3.25v8.88h-3.78v-8.58c0-1.12-.28-1.96-.83-2.52-.55-.56-1.33-.84-2.36-.84-1.16,0-2.06.39-2.7,1.15-.64.77-.96,1.85-.96,3.23v7.56h-3.78Z"/>
      <path class="cls-1" d="M146.97,21.84c-1.72,0-3.2-.31-4.43-.94-1.23-.63-2.17-1.53-2.82-2.7-.65-1.17-.98-2.55-.98-4.15V.42h3.96v13.74c0,1.28.37,2.29,1.1,3.03.73.74,1.79,1.11,3.17,1.11s2.43-.37,3.17-1.11c.73-.74,1.09-1.75,1.09-3.03V.42h3.96v13.62c0,1.6-.33,2.98-.97,4.15-.65,1.17-1.59,2.07-2.82,2.7-1.23.63-2.71.94-4.42.94Z"/>
      <path class="cls-1" d="M159.15,21.42V6.54h3.72v1.95h.54c.24-.52.69-1.01,1.35-1.48.66-.47,1.66-.71,3-.71,1.16,0,2.17.27,3.04.79.87.53,1.54,1.26,2.03,2.19.48.93.72,2.02.72,3.25v8.88h-3.78v-8.58c0-1.12-.28-1.96-.83-2.52-.55-.56-1.33-.84-2.36-.84-1.16,0-2.06.39-2.7,1.15-.64.77-.96,1.85-.96,3.23v7.56h-3.78Z"/>
      <path class="cls-1" d="M179.52,4.8c-.68,0-1.26-.22-1.73-.66s-.71-1.02-.71-1.74.24-1.3.71-1.74,1.04-.66,1.73-.66,1.28.22,1.74.66.69,1.02.69,1.74-.23,1.3-.69,1.74-1.04.66-1.74.66ZM177.63,21.42V6.54h3.78v14.88h-3.78Z"/>
      <path class="cls-1" d="M191.31,21.42c-.98,0-1.77-.3-2.38-.92-.61-.61-.92-1.42-.92-2.44v-8.4h-3.72v-3.12h3.72V1.92h3.78v4.62h4.08v3.12h-4.08v7.74c0,.6.28.9.84.9h2.88v3.12h-4.2Z"/>
      <path class="cls-1" d="M205.53,21.84c-1.48,0-2.79-.31-3.92-.94s-2.01-1.52-2.64-2.67-.95-2.51-.95-4.06v-.36c0-1.56.31-2.91.93-4.06.62-1.15,1.49-2.04,2.61-2.67s2.42-.94,3.9-.94,2.73.33,3.81.97c1.08.65,1.92,1.55,2.52,2.7.6,1.15.9,2.49.9,4v1.29h-10.83c.04,1.02.42,1.85,1.14,2.49.72.64,1.6.96,2.64.96s1.84-.23,2.34-.69.88-.97,1.14-1.53l3.09,1.62c-.28.52-.69,1.08-1.21,1.69-.53.61-1.24,1.13-2.12,1.56-.88.43-2,.65-3.36.65ZM201.9,12.27h6.96c-.08-.86-.42-1.55-1.04-2.07-.61-.52-1.41-.78-2.38-.78s-1.83.26-2.43.78c-.6.52-.97,1.21-1.11,2.07Z"/>
      <path class="cls-1" d="M222.06,21.84c-1.18,0-2.29-.3-3.31-.88-1.03-.59-1.86-1.46-2.48-2.6s-.93-2.52-.93-4.14v-.48c0-1.62.31-3,.93-4.14.62-1.14,1.44-2,2.46-2.6,1.02-.59,2.13-.88,3.33-.88.9,0,1.66.1,2.27.31.61.21,1.1.48,1.48.79.38.32.67.66.87,1.02h.54V.42h3.78v21h-3.72v-1.8h-.54c-.34.56-.87,1.07-1.58,1.53s-1.75.69-3.11.69ZM223.2,18.54c1.16,0,2.13-.38,2.91-1.12.78-.75,1.17-1.85,1.17-3.29v-.3c0-1.44-.39-2.54-1.16-3.29-.77-.75-1.75-1.12-2.92-1.12s-2.13.38-2.91,1.12-1.17,1.85-1.17,3.29v.3c0,1.44.39,2.54,1.17,3.29s1.75,1.12,2.91,1.12Z"/>
      <path class="cls-1" d="M49.61,37.42l-2.85-11.2h2.18l2.37,9.84h.22l2.37-9.84h2.18l-2.85,11.2h-3.62Z"/>
      <path class="cls-1" d="M62.68,28.56c-.36,0-.67-.12-.92-.35-.25-.23-.38-.54-.38-.93s.12-.69.38-.93c.25-.23.56-.35.92-.35s.68.12.93.35c.25.23.37.54.37.93s-.12.69-.37.93c-.25.23-.55.35-.93.35ZM61.67,37.42v-7.94h2.02v7.94h-2.02Z"/>
      <path class="cls-1" d="M73.41,37.64c-1.03,0-1.88-.22-2.54-.67-.66-.45-1.06-1.09-1.2-1.92l1.86-.48c.07.37.2.67.38.88s.39.37.66.46c.26.09.55.14.86.14.47,0,.82-.08,1.04-.25.22-.17.34-.37.34-.62s-.11-.43-.32-.57c-.21-.13-.55-.24-1.02-.33l-.45-.08c-.55-.11-1.06-.25-1.52-.44-.46-.19-.83-.45-1.1-.78-.28-.33-.42-.76-.42-1.28,0-.79.29-1.39.86-1.82s1.33-.63,2.27-.63c.88,0,1.62.2,2.21.59.59.39.97.91,1.15,1.55l-1.87.58c-.08-.41-.26-.69-.52-.86-.26-.17-.58-.26-.97-.26s-.68.07-.88.2c-.2.13-.3.32-.3.55,0,.26.11.45.32.57.21.12.5.22.86.28l.45.08c.6.11,1.14.25,1.62.42.49.18.87.43,1.15.75.28.33.42.77.42,1.32,0,.83-.3,1.47-.9,1.93-.6.45-1.41.68-2.42.68Z"/>
      <path class="cls-1" d="M85.72,37.55c-.62,0-1.16-.14-1.62-.42s-.82-.67-1.08-1.18c-.26-.5-.38-1.08-.38-1.73v-4.74h2.02v4.58c0,.6.15,1.05.44,1.34.29.3.71.45,1.26.45.62,0,1.1-.21,1.44-.62.34-.41.51-.98.51-1.72v-4.03h2.02v7.94h-1.98v-1.04h-.29c-.13.27-.37.53-.72.78-.35.26-.89.38-1.6.38Z"/>
      <path class="cls-1" d="M99.21,37.64c-.57,0-1.07-.1-1.52-.3s-.8-.49-1.06-.86c-.26-.38-.39-.84-.39-1.38s.13-1,.39-1.37.62-.65,1.09-.83c.46-.19,1-.28,1.59-.28h2.18v-.45c0-.37-.12-.68-.35-.92-.23-.24-.61-.36-1.12-.36s-.87.11-1.12.34c-.25.23-.41.53-.48.89l-1.86-.62c.13-.41.33-.78.62-1.11.28-.34.66-.61,1.14-.82.47-.21,1.05-.31,1.74-.31,1.05,0,1.87.26,2.48.78.61.52.91,1.28.91,2.27v2.96c0,.32.15.48.45.48h.64v1.66h-1.34c-.39,0-.72-.1-.98-.29s-.38-.45-.38-.77v-.02h-.3c-.04.13-.14.3-.29.5-.15.21-.38.39-.7.55s-.76.24-1.31.24ZM99.56,36.01c.57,0,1.03-.16,1.38-.47s.54-.73.54-1.26v-.16h-2.03c-.37,0-.67.08-.88.24-.21.16-.32.38-.32.67s.11.52.34.7c.22.18.55.27.98.27Z"/>
      <path class="cls-1" d="M110.18,37.42v-11.2h2.02v11.2h-2.02Z"/>
      <path class="cls-1" d="M125.86,37.42l2.94-11.2h3.68l2.94,11.2h-2.18l-.61-2.46h-4l-.61,2.46h-2.18ZM129.14,33h3.01l-1.36-5.46h-.29l-1.36,5.46Z"/>
      <path class="cls-1" d="M141.03,37.42v-7.94h1.98v1.04h.29c.13-.28.37-.54.72-.79.35-.25.89-.38,1.6-.38.62,0,1.16.14,1.62.42.46.28.82.67,1.08,1.17.26.5.38,1.07.38,1.74v4.74h-2.02v-4.58c0-.6-.15-1.04-.44-1.34-.29-.3-.71-.45-1.26-.45-.62,0-1.1.21-1.44.62-.34.41-.51.98-.51,1.72v4.03h-2.02Z"/>
      <path class="cls-1" d="M157.54,37.64c-.57,0-1.07-.1-1.52-.3-.45-.2-.8-.49-1.06-.86-.26-.38-.39-.84-.39-1.38s.13-1,.39-1.37c.26-.37.62-.65,1.09-.83.46-.19.99-.28,1.59-.28h2.18v-.45c0-.37-.12-.68-.35-.92-.24-.24-.61-.36-1.12-.36s-.88.11-1.12.34c-.25.23-.41.53-.48.89l-1.86-.62c.13-.41.33-.78.62-1.11.28-.34.66-.61,1.14-.82s1.05-.31,1.74-.31c1.04,0,1.87.26,2.48.78.61.52.91,1.28.91,2.27v2.96c0,.32.15.48.45.48h.64v1.66h-1.34c-.39,0-.72-.1-.98-.29-.26-.19-.38-.45-.38-.77v-.02h-.3c-.04.13-.14.3-.29.5s-.38.39-.7.55c-.32.16-.76.24-1.31.24ZM157.89,36.01c.57,0,1.03-.16,1.38-.47s.54-.73.54-1.26v-.16h-2.03c-.37,0-.67.08-.88.24-.21.16-.32.38-.32.67s.11.52.34.7c.22.18.55.27.98.27Z"/>
      <path class="cls-1" d="M168.52,37.42v-11.2h2.02v11.2h-2.02Z"/>
      <path class="cls-1" d="M177.83,40.62v-1.76h4.32c.3,0,.45-.16.45-.48v-2h-.29c-.08.18-.22.36-.4.54-.18.18-.43.33-.74.45s-.7.18-1.18.18c-.62,0-1.16-.14-1.62-.42s-.82-.67-1.08-1.18c-.26-.5-.38-1.08-.38-1.73v-4.74h2.02v4.58c0,.6.15,1.05.44,1.34.29.3.71.45,1.26.45.62,0,1.1-.21,1.44-.62.34-.41.51-.98.51-1.72v-4.03h2.02v9.34c0,.54-.16.98-.48,1.3-.32.33-.75.49-1.28.49h-4.99Z"/>
      <path class="cls-1" d="M194.05,37.42c-.52,0-.95-.16-1.27-.49-.33-.33-.49-.76-.49-1.3v-4.48h-1.98v-1.66h1.98v-2.46h2.02v2.46h2.18v1.66h-2.18v4.13c0,.32.15.48.45.48h1.54v1.66h-2.24Z"/>
      <path class="cls-1" d="M203.51,28.56c-.36,0-.67-.12-.92-.35-.25-.23-.38-.54-.38-.93s.12-.69.38-.93c.25-.23.56-.35.92-.35s.68.12.93.35c.25.23.37.54.37.93s-.12.69-.37.93c-.25.23-.55.35-.93.35ZM202.5,37.42v-7.94h2.02v7.94h-2.02Z"/>
      <path class="cls-1" d="M214.68,37.64c-.77,0-1.46-.16-2.09-.48-.62-.32-1.12-.78-1.48-1.39-.36-.61-.54-1.34-.54-2.21v-.22c0-.86.18-1.6.54-2.21.36-.61.86-1.07,1.48-1.39.62-.32,1.32-.48,2.09-.48s1.41.13,1.95.4.98.63,1.32,1.1.56.99.66,1.58l-1.95.42c-.04-.32-.14-.61-.29-.86-.15-.26-.36-.46-.63-.61-.27-.15-.61-.22-1.02-.22s-.77.09-1.1.26-.58.44-.77.78-.28.77-.28,1.27v.16c0,.5.09.93.28,1.27.19.35.44.61.77.78.33.18.69.26,1.1.26.61,0,1.07-.16,1.38-.47.31-.31.51-.73.6-1.24l1.95.46c-.14.57-.38,1.08-.71,1.54s-.78.83-1.32,1.1c-.54.27-1.19.4-1.95.4Z"/>
      <path class="cls-1" d="M227.81,37.64c-1.04,0-1.88-.22-2.54-.67-.66-.45-1.06-1.09-1.2-1.92l1.86-.48c.07.37.2.67.38.88.18.21.39.37.66.46.26.09.55.14.86.14.47,0,.82-.08,1.04-.25.22-.17.34-.37.34-.62s-.11-.43-.32-.57c-.21-.13-.55-.24-1.02-.33l-.45-.08c-.55-.11-1.06-.25-1.52-.44-.46-.19-.83-.45-1.1-.78-.28-.33-.42-.76-.42-1.28,0-.79.29-1.39.86-1.82s1.33-.63,2.27-.63c.89,0,1.62.2,2.21.59s.97.91,1.15,1.55l-1.87.58c-.09-.41-.26-.69-.52-.86-.26-.17-.58-.26-.97-.26s-.68.07-.88.2c-.2.13-.3.32-.3.55,0,.26.11.45.32.57.21.12.5.22.86.28l.45.08c.6.11,1.14.25,1.62.42.49.18.87.43,1.15.75.28.33.42.77.42,1.32,0,.83-.3,1.47-.9,1.93-.6.45-1.41.68-2.42.68Z"/>
    </g>
    <g id="layer1">
      <path id="soccer_foodball" data-name="soccer foodball" class="cls-2" d="M18.41,0C8.24,0,0,8.24,0,18.41s8.24,18.41,18.41,18.41,18.41-8.24,18.41-18.41S28.57,0,18.41,0ZM18.41.18c2.39,0,4.68.47,6.77,1.3.09.9.06,1.91-.09,3-2.36.13-4.48.6-6.38,1.41-1.72-1.1-4.03-1.77-6.71-1.77,0-1.15-.07-2.06-.18-2.72,2.04-.79,4.26-1.23,6.59-1.23ZM25.37,1.57c4.24,1.76,7.67,5.06,9.59,9.21l-.52.71c-1.23-.86-2.79-1.41-4.37-1.77,0,0,0,0,0,0-1.66-2.47-3.26-4.2-4.8-5.17.15-1.08.19-2.07.11-2.97h0ZM11.96,4.32s0,0,.01,0c2.66,0,4.95.66,6.64,1.74.35,2.01.65,4.14.89,6.38-2.91,2.43-4.97,4.34-5.96,5.57-2.24-.7-4.36-1.23-6.36-1.59-.61-1.7-1.05-4.12-1.17-7.04,1.93-2.63,3.91-4.32,5.96-5.06ZM4.19,9.2c.52,0,1.07.08,1.63.21.12,2.92.57,5.35,1.18,7.07-1.41,1.9-2.24,3.86-2.5,5.87-1.08.24-2.3.32-3.5.08,0,0,0,0,0,0-.22-.32-.41-.68-.57-1.08-.15-.96-.24-1.94-.24-2.94,0-3.27.86-6.35,2.38-9,.52-.14,1.07-.21,1.63-.21ZM30.06,9.91c1.55.36,3.08.9,4.28,1.72,1.33,3.28,1.94,5.83,1.83,7.66-.85,2.43-2.04,4.26-3.24,5.47-1.72-.8-3.16-1.44-4.33-1.91-.13-2.32-.72-5.1-1.69-8.02,1.28-1.86,2.33-3.5,3.16-4.92ZM19.61,12.57c2.37.48,4.74,1.25,7.11,2.31.97,2.92,1.57,5.7,1.69,8,0,0,0,0,0,0-1.66,2-3.49,3.65-5.49,4.97-2.92-.49-5.59-1.33-7.65-2.42-.71-2.84-1.24-5.28-1.6-7.31.97-1.21,3.03-3.13,5.95-5.56h0ZM36.34,19.38l.26.09c-.26,4.55-2.19,8.64-5.18,11.69l-.52-.56c1.18-2.02,1.89-3.92,2.14-5.71,1.23-1.23,2.43-3.08,3.29-5.52ZM4.53,22.53c.86,2.14,2.41,4.05,4.67,5.72.12,1.93.5,3.73,1.34,5.2-.76.16-1.59.14-2.48-.06-3.25-2.25-5.74-5.53-6.99-9.37,0,0,0,0,0,0-.04-.49-.05-.96-.06-1.41,1.21.23,2.43.17,3.52-.07h0ZM15.19,25.6c2.07,1.09,4.73,1.94,7.63,2.43.46,1.52.87,3.1,1.22,4.73-1.32,1.56-3.43,2.68-6.2,3.05-2.68-.24-5.06-1.04-7.13-2.38-.84-1.44-1.22-3.25-1.34-5.19,2.11-.82,4.05-1.71,5.81-2.64ZM30.78,30.74l.51.55c-3.3,3.3-7.86,5.34-12.89,5.34-.15,0-.3,0-.45,0l-.07-.64c2.81-.37,4.96-1.51,6.32-3.11,2.83-.13,5.03-.84,6.59-2.13h0Z"/>
    </g>
  </g>
</svg>